<svg width="40" height="41" viewBox="0 0 40 41" fill="none" xmlns="http://www.w3.org/2000/svg">
<path d="M20 37C16.287 37 12.726 35.525 10.1005 32.8995C7.475 30.274 6 26.713 6 23C6 19.2869 7.475 15.726 10.1005 13.1005C12.726 10.475 16.287 8.99997 20 8.99997C23.713 8.99997 27.274 10.475 29.8995 13.1005C32.525 15.726 34 19.2869 34 23C34 26.713 32.525 30.274 29.8995 32.8995C27.274 35.525 23.713 37 20 37ZM20 4.99997C15.2261 4.99997 10.6477 6.89639 7.27208 10.272C3.89642 13.6477 2 18.2261 2 23C2 27.7739 3.89642 32.3522 7.27208 35.7279C10.6477 39.1035 15.2261 41 20 41C24.7739 41 29.3523 39.1035 32.7279 35.7279C36.1036 32.3522 38 27.7739 38 23C38 18.2261 36.1036 13.6477 32.7279 10.272C29.3523 6.89639 24.7739 4.99997 20 4.99997ZM21 13H18V25L27.5 30.7L29 28.24L21 23.5V13ZM11.76 3.77997L9.2 0.719971L0 8.41997L2.58 11.48L11.76 3.77997ZM40 8.43997L30.8 0.719971L28.22 3.77997L37.42 11.5L40 8.43997Z" fill="#426BB6"/>
</svg>
