<svg width="151" height="37" viewBox="0 0 151 37" fill="none" xmlns="http://www.w3.org/2000/svg">
<path d="M16.8333 14.3333C16.18 14.3333 15.6666 14.835 15.6666 15.5C15.6666 15.8094 15.7895 16.1061 16.0083 16.3249C16.2271 16.5437 16.5239 16.6666 16.8333 16.6666C17.4983 16.6666 18 16.1416 18 15.5C18 14.835 17.4983 14.3333 16.8333 14.3333ZM36.6666 7.33331V17.8333C36.6666 21.2866 34.1116 24.25 30.67 24.7283C29.9466 28.24 26.8433 30.6666 23.25 30.6666C22.2541 30.6666 21.268 30.4705 20.3479 30.0894C19.4279 29.7083 18.5919 29.1497 17.8877 28.4455C17.1836 27.7414 16.625 26.9054 16.2439 25.9853C15.8628 25.0653 15.6666 24.0792 15.6666 23.0833V18.7783C14.3133 18.2883 13.3333 17.005 13.3333 15.5C13.3333 14.5717 13.702 13.6815 14.3584 13.0251C15.0148 12.3687 15.905 12 16.8333 12C17.7616 12 18.6518 12.3687 19.3082 13.0251C19.9645 13.6815 20.3333 14.5717 20.3333 15.5C20.3333 17.005 19.3533 18.3 18 18.7783V22.9783C18 25.895 20.3333 28.2283 23.25 28.2283C25.5833 28.2283 27.5433 26.8166 28.2433 24.7166C25 24.0166 22.6666 21.1 22.6666 17.8333V7.33331H27.3333V10.8333H25V17.8333C25 19.071 25.4916 20.258 26.3668 21.1331C27.242 22.0083 28.429 22.5 29.6666 22.5C30.9043 22.5 32.0913 22.0083 32.9665 21.1331C33.8416 20.258 34.3333 19.071 34.3333 17.8333V10.8333H32V7.33331H36.6666Z" fill="#426BB6"/>
<path d="M64.92 10.248V27H61.56V16.104L57.072 27H54.528L50.016 16.104V27H46.656V10.248H50.472L55.8 22.704L61.128 10.248H64.92ZM80.6019 20.064C80.6019 20.544 80.5699 20.976 80.5059 21.36H70.7859C70.8659 22.32 71.2019 23.072 71.7939 23.616C72.3859 24.16 73.1139 24.432 73.9779 24.432C75.2259 24.432 76.1139 23.896 76.6419 22.824H80.2659C79.8819 24.104 79.1459 25.16 78.0579 25.992C76.9699 26.808 75.6339 27.216 74.0499 27.216C72.7699 27.216 71.6179 26.936 70.5939 26.376C69.5859 25.8 68.7939 24.992 68.2179 23.952C67.6579 22.912 67.3779 21.712 67.3779 20.352C67.3779 18.976 67.6579 17.768 68.2179 16.728C68.7779 15.688 69.5619 14.888 70.5699 14.328C71.5779 13.768 72.7379 13.488 74.0499 13.488C75.3139 13.488 76.4419 13.76 77.4339 14.304C78.4419 14.848 79.2179 15.624 79.7619 16.632C80.3219 17.624 80.6019 18.768 80.6019 20.064ZM77.1219 19.104C77.1059 18.24 76.7939 17.552 76.1859 17.04C75.5779 16.512 74.8339 16.248 73.9539 16.248C73.1219 16.248 72.4179 16.504 71.8419 17.016C71.2819 17.512 70.9379 18.208 70.8099 19.104H77.1219ZM82.1904 20.304C82.1904 18.96 82.4544 17.768 82.9824 16.728C83.5264 15.688 84.2624 14.888 85.1904 14.328C86.1184 13.768 87.1504 13.488 88.2864 13.488C89.1504 13.488 89.9744 13.68 90.7584 14.064C91.5424 14.432 92.1664 14.928 92.6304 15.552V9.24H96.0384V27H92.6304V25.032C92.2144 25.688 91.6304 26.216 90.8784 26.616C90.1264 27.016 89.2544 27.216 88.2624 27.216C87.1424 27.216 86.1184 26.928 85.1904 26.352C84.2624 25.776 83.5264 24.968 82.9824 23.928C82.4544 22.872 82.1904 21.664 82.1904 20.304ZM92.6544 20.352C92.6544 19.536 92.4944 18.84 92.1744 18.264C91.8544 17.672 91.4224 17.224 90.8784 16.92C90.3344 16.6 89.7504 16.44 89.1264 16.44C88.5024 16.44 87.9264 16.592 87.3984 16.896C86.8704 17.2 86.4384 17.648 86.1024 18.24C85.7824 18.816 85.6224 19.504 85.6224 20.304C85.6224 21.104 85.7824 21.808 86.1024 22.416C86.4384 23.008 86.8704 23.464 87.3984 23.784C87.9424 24.104 88.5184 24.264 89.1264 24.264C89.7504 24.264 90.3344 24.112 90.8784 23.808C91.4224 23.488 91.8544 23.04 92.1744 22.464C92.4944 21.872 92.6544 21.168 92.6544 20.352ZM101.024 12.12C100.432 12.12 99.9361 11.936 99.5361 11.568C99.1521 11.184 98.9601 10.712 98.9601 10.152C98.9601 9.592 99.1521 9.128 99.5361 8.76C99.9361 8.376 100.432 8.184 101.024 8.184C101.616 8.184 102.104 8.376 102.488 8.76C102.888 9.128 103.088 9.592 103.088 10.152C103.088 10.712 102.888 11.184 102.488 11.568C102.104 11.936 101.616 12.12 101.024 12.12ZM102.68 13.704V27H99.3201V13.704H102.68ZM113.872 27L109.36 21.336V27H106V9.24H109.36V19.344L113.824 13.704H118.192L112.336 20.376L118.24 27H113.872ZM119.151 20.304C119.151 18.96 119.415 17.768 119.943 16.728C120.487 15.688 121.215 14.888 122.127 14.328C123.055 13.768 124.087 13.488 125.223 13.488C126.215 13.488 127.079 13.688 127.815 14.088C128.567 14.488 129.167 14.992 129.615 15.6V13.704H132.999V27H129.615V25.056C129.183 25.68 128.583 26.2 127.815 26.616C127.063 27.016 126.191 27.216 125.199 27.216C124.079 27.216 123.055 26.928 122.127 26.352C121.215 25.776 120.487 24.968 119.943 23.928C119.415 22.872 119.151 21.664 119.151 20.304ZM129.615 20.352C129.615 19.536 129.455 18.84 129.135 18.264C128.815 17.672 128.383 17.224 127.839 16.92C127.295 16.6 126.711 16.44 126.087 16.44C125.463 16.44 124.887 16.592 124.359 16.896C123.831 17.2 123.399 17.648 123.063 18.24C122.743 18.816 122.583 19.504 122.583 20.304C122.583 21.104 122.743 21.808 123.063 22.416C123.399 23.008 123.831 23.464 124.359 23.784C124.903 24.104 125.479 24.264 126.087 24.264C126.711 24.264 127.295 24.112 127.839 23.808C128.383 23.488 128.815 23.04 129.135 22.464C129.455 21.872 129.615 21.168 129.615 20.352ZM139.641 9.24V27H136.281V9.24H139.641Z" fill="url(#paint0_linear_227:3926)"/>
<defs>
<linearGradient id="paint0_linear_227:3926" x1="38.6739" y1="21.7" x2="149.531" y2="18.9776" gradientUnits="userSpaceOnUse">
<stop stop-color="#426BB6"/>
<stop offset="1" stop-color="#1AADC0" stop-opacity="0.62"/>
</linearGradient>
</defs>
</svg>
