<svg width="40" height="40" viewBox="0 0 40 40" fill="none" xmlns="http://www.w3.org/2000/svg">
<path d="M34 12C35.12 12 36 12.86 36 14C36 14.5304 35.7893 15.0391 35.4142 15.4142C35.0391 15.7893 34.5304 16 34 16C32.86 16 32 15.1 32 14C32 12.86 32.86 12 34 12ZM0 0V18C0 23.92 4.38 29 10.28 29.82C11.52 35.84 16.84 40 23 40C24.7072 40 26.3977 39.6637 27.9749 39.0104C29.5521 38.3571 30.9852 37.3995 32.1924 36.1924C33.3995 34.9852 34.3571 33.5521 35.0104 31.9749C35.6637 30.3977 36 28.7072 36 27V19.62C38.32 18.78 40 16.58 40 14C40 12.4087 39.3679 10.8826 38.2426 9.75736C37.1174 8.63214 35.5913 8 34 8C32.4087 8 30.8826 8.63214 29.7574 9.75736C28.6321 10.8826 28 12.4087 28 14C28 16.58 29.68 18.8 32 19.62V26.82C32 31.82 28 35.82 23 35.82C19 35.82 15.64 33.4 14.44 29.8C20 28.6 24 23.6 24 18V0H16V6H20V18C20 20.1217 19.1571 22.1566 17.6569 23.6569C16.1566 25.1571 14.1217 26 12 26C9.87827 26 7.84344 25.1571 6.34315 23.6569C4.84285 22.1566 4 20.1217 4 18V6H8V0H0Z" fill="#426BB6"/>
</svg>
