<svg width="28" height="28" viewBox="0 0 28 28" fill="none" xmlns="http://www.w3.org/2000/svg">
<path d="M15.3337 9.99996H12.667V7.33329H15.3337V9.99996ZM15.3337 20.6666H12.667V12.6666H15.3337V20.6666ZM14.0003 0.666626C12.2494 0.666626 10.5156 1.0115 8.89788 1.68157C7.2802 2.35163 5.81035 3.33375 4.57224 4.57187C2.07175 7.07235 0.666992 10.4637 0.666992 14C0.666992 17.5362 2.07175 20.9276 4.57224 23.4281C5.81035 24.6662 7.2802 25.6483 8.89788 26.3184C10.5156 26.9884 12.2494 27.3333 14.0003 27.3333C17.5365 27.3333 20.9279 25.9285 23.4284 23.4281C25.9289 20.9276 27.3337 17.5362 27.3337 14C27.3337 12.249 26.9888 10.5152 26.3187 8.89751C25.6487 7.27984 24.6665 5.80998 23.4284 4.57187C22.1903 3.33375 20.7204 2.35163 19.1028 1.68157C17.4851 1.0115 15.7513 0.666626 14.0003 0.666626V0.666626Z" fill="#385B9B"/>
</svg>
