<svg width="14" height="28" viewBox="0 0 14 28" fill="none" xmlns="http://www.w3.org/2000/svg">
<path d="M0.333008 0.666626V3.33329H1.66634V22C1.66634 23.4144 2.22824 24.771 3.22844 25.7712C4.22863 26.7714 5.58519 27.3333 6.99967 27.3333C8.41416 27.3333 9.77072 26.7714 10.7709 25.7712C11.7711 24.771 12.333 23.4144 12.333 22V3.33329H13.6663V0.666626H0.333008ZM5.66634 19.3333C4.86634 19.3333 4.33301 18.8 4.33301 18C4.33301 17.2 4.86634 16.6666 5.66634 16.6666C6.46634 16.6666 6.99967 17.2 6.99967 18C6.99967 18.8 6.46634 19.3333 5.66634 19.3333ZM8.33301 14C7.53301 14 6.99967 13.4666 6.99967 12.6666C6.99967 11.8666 7.53301 11.3333 8.33301 11.3333C9.13301 11.3333 9.66634 11.8666 9.66634 12.6666C9.66634 13.4666 9.13301 14 8.33301 14ZM9.66634 7.33329H4.33301V3.33329H9.66634V7.33329Z" fill="#385B9B"/>
</svg>
