<svg width="28" height="28" viewBox="0 0 28 28" fill="none" xmlns="http://www.w3.org/2000/svg">
<path d="M21.6404 14L26.947 8.72C27.467 8.2 27.467 7.33333 26.947 6.84L21.1604 1.05333C20.667 0.53333 19.8004 0.53333 19.2804 1.05333L14.0004 6.36L8.66702 1.05333C8.40035 0.799997 8.06702 0.666663 7.72035 0.666663C7.38702 0.666663 7.04035 0.799997 6.78702 1.05333L1.00035 6.84C0.480352 7.33333 0.480352 8.2 1.00035 8.72L6.30702 14L1.00035 19.3333C0.480352 19.8533 0.480352 20.6667 1.00035 21.2133L6.78702 27C7.33369 27.52 8.14702 27.52 8.66702 27L14.0004 21.6933L19.2804 27C19.547 27.2667 19.8804 27.3867 20.227 27.3867C20.5737 27.3867 20.907 27.2533 21.1737 27L26.9604 21.2133C27.4804 20.6667 27.4804 19.8533 26.9604 19.3333L21.6404 14ZM14.0004 10C14.354 10 14.6931 10.1405 14.9432 10.3905C15.1932 10.6406 15.3337 10.9797 15.3337 11.3333C15.3337 11.687 15.1932 12.0261 14.9432 12.2761C14.6931 12.5262 14.354 12.6667 14.0004 12.6667C13.6467 12.6667 13.3076 12.5262 13.0575 12.2761C12.8075 12.0261 12.667 11.687 12.667 11.3333C12.667 10.9797 12.8075 10.6406 13.0575 10.3905C13.3076 10.1405 13.6467 10 14.0004 10ZM7.72035 12.6133L2.88035 7.78666L7.72035 2.94666L12.547 7.77333L7.72035 12.6133ZM11.3337 15.3333C10.9801 15.3333 10.6409 15.1929 10.3909 14.9428C10.1408 14.6928 10.0004 14.3536 10.0004 14C10.0004 13.6464 10.1408 13.3072 10.3909 13.0572C10.6409 12.8071 10.9801 12.6667 11.3337 12.6667C11.6873 12.6667 12.0264 12.8071 12.2765 13.0572C12.5265 13.3072 12.667 13.6464 12.667 14C12.667 14.3536 12.5265 14.6928 12.2765 14.9428C12.0264 15.1929 11.6873 15.3333 11.3337 15.3333ZM14.0004 18C13.6467 18 13.3076 17.8595 13.0575 17.6095C12.8075 17.3594 12.667 17.0203 12.667 16.6667C12.667 16.313 12.8075 15.9739 13.0575 15.7239C13.3076 15.4738 13.6467 15.3333 14.0004 15.3333C14.354 15.3333 14.6931 15.4738 14.9432 15.7239C15.1932 15.9739 15.3337 16.313 15.3337 16.6667C15.3337 17.0203 15.1932 17.3594 14.9432 17.6095C14.6931 17.8595 14.354 18 14.0004 18ZM16.667 12.6667C17.0206 12.6667 17.3598 12.8071 17.6098 13.0572C17.8599 13.3072 18.0004 13.6464 18.0004 14C18.0004 14.3536 17.8599 14.6928 17.6098 14.9428C17.3598 15.1929 17.0206 15.3333 16.667 15.3333C16.3134 15.3333 15.9743 15.1929 15.7242 14.9428C15.4742 14.6928 15.3337 14.3536 15.3337 14C15.3337 13.6464 15.4742 13.3072 15.7242 13.0572C15.9743 12.8071 16.3134 12.6667 16.667 12.6667ZM20.2137 25.12L15.3737 20.2933L20.2137 15.4533L25.0404 20.28L20.2137 25.12Z" fill="#385B9B"/>
</svg>
