<svg width="28" height="24" viewBox="0 0 28 24" fill="none" xmlns="http://www.w3.org/2000/svg">
<path d="M11.3336 0L8.66689 2.66667V5.33333H4.66689C3.13355 5.33333 2.16022 6.66667 2.00022 8L0.666887 21.3333C0.506887 22.6667 1.38689 24 3.33355 24H24.6669C26.6136 24 27.4936 22.6667 27.3336 21.3333L26.0002 8C25.8402 6.66667 24.7469 5.33333 23.3336 5.33333H19.3336V2.66667L16.6669 0H11.3336ZM11.3336 2.66667H16.6669V5.33333H11.3336V2.66667ZM12.6669 9.33333H15.3336V13.3333H19.3336V16H15.3336V20H12.6669V16H8.66689V13.3333H12.6669V9.33333Z" fill="#385B9B"/>
</svg>
