<svg width="28" height="28" viewBox="0 0 28 28" fill="none" xmlns="http://www.w3.org/2000/svg">
<path d="M18.0937 13L16.8937 14.2266C15.9337 15.1866 15.3337 16 15.3337 18H12.667V17.3333C12.667 15.8533 13.267 14.52 14.227 13.56L15.8803 11.88C16.3737 11.4 16.667 10.7333 16.667 9.99996C16.667 8.51996 15.467 7.33329 14.0003 7.33329C13.2931 7.33329 12.6148 7.61424 12.1147 8.11434C11.6146 8.61444 11.3337 9.29272 11.3337 9.99996H8.66699C8.66699 8.58547 9.2289 7.22892 10.2291 6.22872C11.2293 5.22853 12.5858 4.66663 14.0003 4.66663C15.4148 4.66663 16.7714 5.22853 17.7716 6.22872C18.7718 7.22892 19.3337 8.58547 19.3337 9.99996C19.3337 11.1733 18.8537 12.2266 18.0937 13ZM15.3337 23.3333H12.667V20.6666H15.3337V23.3333ZM14.0003 0.666626C12.2494 0.666626 10.5156 1.0115 8.89788 1.68157C7.2802 2.35163 5.81035 3.33375 4.57224 4.57187C2.07175 7.07235 0.666992 10.4637 0.666992 14C0.666992 17.5362 2.07175 20.9276 4.57224 23.4281C5.81035 24.6662 7.2802 25.6483 8.89788 26.3184C10.5156 26.9884 12.2494 27.3333 14.0003 27.3333C17.5365 27.3333 20.9279 25.9285 23.4284 23.4281C25.9289 20.9276 27.3337 17.5362 27.3337 14C27.3337 6.62663 21.3337 0.666626 14.0003 0.666626Z" fill="#385B9B"/>
</svg>
