<svg width="28" height="28" viewBox="0 0 28 28" fill="none" xmlns="http://www.w3.org/2000/svg">
<path d="M14.0003 24.6666C11.525 24.6666 9.151 23.6833 7.40066 21.933C5.65032 20.1826 4.66699 17.8087 4.66699 15.3333C4.66699 12.858 5.65032 10.484 7.40066 8.73365C9.151 6.98331 11.525 5.99998 14.0003 5.99998C16.4757 5.99998 18.8496 6.98331 20.6 8.73365C22.3503 10.484 23.3337 12.858 23.3337 15.3333C23.3337 17.8087 22.3503 20.1826 20.6 21.933C18.8496 23.6833 16.4757 24.6666 14.0003 24.6666ZM14.0003 3.33331C10.8177 3.33331 7.76548 4.5976 5.51504 6.84803C3.26461 9.09847 2.00033 12.1507 2.00033 15.3333C2.00033 18.5159 3.26461 21.5682 5.51504 23.8186C7.76548 26.069 10.8177 27.3333 14.0003 27.3333C17.1829 27.3333 20.2352 26.069 22.4856 23.8186C24.736 21.5682 26.0003 18.5159 26.0003 15.3333C26.0003 12.1507 24.736 9.09847 22.4856 6.84803C20.2352 4.5976 17.1829 3.33331 14.0003 3.33331ZM14.667 8.66665H12.667V16.6666L19.0003 20.4666L20.0003 18.8266L14.667 15.6666V8.66665ZM8.50699 2.51998L6.80033 0.47998L0.666992 5.61331L2.38699 7.65331L8.50699 2.51998ZM27.3337 5.62665L21.2003 0.47998L19.4803 2.51998L25.6137 7.66665L27.3337 5.62665Z" fill="#385B9B"/>
</svg>
