<svg width="26" height="26" viewBox="0 0 26 26" fill="none" xmlns="http://www.w3.org/2000/svg">
<path d="M12.9999 0.333374C14.6796 0.333374 16.2905 1.00063 17.4783 2.18836C18.666 3.37609 19.3333 4.987 19.3333 6.66671C19.3333 8.34641 18.666 9.95732 17.4783 11.1451C16.2905 12.3328 14.6796 13 12.9999 13C11.3202 13 9.7093 12.3328 8.52157 11.1451C7.33384 9.95732 6.66658 8.34641 6.66658 6.66671C6.66658 4.987 7.33384 3.37609 8.52157 2.18836C9.7093 1.00063 11.3202 0.333374 12.9999 0.333374ZM12.9999 16.1667C19.9983 16.1667 25.6666 19.0009 25.6666 22.5V25.6667H0.333252V22.5C0.333252 19.0009 6.00159 16.1667 12.9999 16.1667Z" fill="#2F2E41"/>
</svg>
