<svg width="26" height="28" viewBox="0 0 26 28" fill="none" xmlns="http://www.w3.org/2000/svg">
<path d="M12.9998 18.6666C11.7621 18.6666 10.5751 18.175 9.69995 17.2998C8.82479 16.4246 8.33312 15.2376 8.33312 14C8.33312 12.7623 8.82479 11.5753 9.69995 10.7001C10.5751 9.82496 11.7621 9.33329 12.9998 9.33329C14.2375 9.33329 15.4244 9.82496 16.2996 10.7001C17.1748 11.5753 17.6665 12.7623 17.6665 14C17.6665 15.2376 17.1748 16.4246 16.2996 17.2998C15.4244 18.175 14.2375 18.6666 12.9998 18.6666ZM22.9065 15.2933C22.9598 14.8666 22.9998 14.44 22.9998 14C22.9998 13.56 22.9598 13.12 22.9065 12.6666L25.7198 10.4933C25.9731 10.2933 26.0398 9.93329 25.8798 9.63996L23.2131 5.02663C23.0531 4.73329 22.6931 4.61329 22.3998 4.73329L19.0798 6.06663C18.3865 5.54663 17.6665 5.09329 16.8265 4.75996L16.3331 1.22663C16.2798 0.906626 15.9998 0.666626 15.6665 0.666626H10.3331C9.99979 0.666626 9.71979 0.906626 9.66645 1.22663L9.17312 4.75996C8.33312 5.09329 7.61312 5.54663 6.91979 6.06663L3.59979 4.73329C3.30645 4.61329 2.94645 4.73329 2.78645 5.02663L0.119786 9.63996C-0.0535475 9.93329 0.0264527 10.2933 0.279786 10.4933L3.09312 12.6666C3.03979 13.12 2.99979 13.56 2.99979 14C2.99979 14.44 3.03979 14.8666 3.09312 15.2933L0.279786 17.5066C0.0264527 17.7066 -0.0535475 18.0666 0.119786 18.36L2.78645 22.9733C2.94645 23.2666 3.30645 23.3733 3.59979 23.2666L6.91979 21.92C7.61312 22.4533 8.33312 22.9066 9.17312 23.24L9.66645 26.7733C9.71979 27.0933 9.99979 27.3333 10.3331 27.3333H15.6665C15.9998 27.3333 16.2798 27.0933 16.3331 26.7733L16.8265 23.24C17.6665 22.8933 18.3865 22.4533 19.0798 21.92L22.3998 23.2666C22.6931 23.3733 23.0531 23.2666 23.2131 22.9733L25.8798 18.36C26.0398 18.0666 25.9731 17.7066 25.7198 17.5066L22.9065 15.2933Z" fill="#385B9B"/>
</svg>
