<svg width="53" height="13" viewBox="0 0 53 13" fill="none" xmlns="http://www.w3.org/2000/svg">
<path d="M1.85014 9.09C1.95014 9.66 2.18014 10.1 2.54014 10.41C2.91014 10.72 3.40514 10.875 4.02514 10.875C4.85514 10.875 5.46514 10.55 5.85514 9.9C6.25514 9.25 6.44514 8.155 6.42514 6.615C6.21514 7.065 5.86514 7.42 5.37514 7.68C4.88514 7.93 4.34014 8.055 3.74014 8.055C3.07014 8.055 2.47014 7.92 1.94014 7.65C1.42014 7.37 1.01014 6.965 0.710136 6.435C0.410136 5.905 0.260136 5.265 0.260136 4.515C0.260136 3.445 0.570136 2.585 1.19014 1.935C1.81014 1.275 2.69014 0.944999 3.83014 0.944999C5.23014 0.944999 6.21014 1.4 6.77014 2.31C7.34014 3.22 7.62514 4.575 7.62514 6.375C7.62514 7.635 7.51014 8.675 7.28014 9.495C7.06014 10.315 6.68014 10.94 6.14014 11.37C5.61014 11.8 4.88014 12.015 3.95014 12.015C2.93014 12.015 2.13514 11.74 1.56514 11.19C0.995136 10.64 0.670136 9.94 0.590136 9.09H1.85014ZM3.96514 6.9C4.63514 6.9 5.18514 6.695 5.61514 6.285C6.04514 5.865 6.26014 5.3 6.26014 4.59C6.26014 3.84 6.05014 3.235 5.63014 2.775C5.21014 2.315 4.62014 2.085 3.86014 2.085C3.16014 2.085 2.60014 2.305 2.18014 2.745C1.77014 3.185 1.56514 3.765 1.56514 4.485C1.56514 5.215 1.77014 5.8 2.18014 6.24C2.59014 6.68 3.18514 6.9 3.96514 6.9ZM9.90338 12.09C9.64338 12.09 9.42338 12 9.24338 11.82C9.06338 11.64 8.97338 11.42 8.97338 11.16C8.97338 10.9 9.06338 10.68 9.24338 10.5C9.42338 10.32 9.64338 10.23 9.90338 10.23C10.1534 10.23 10.3634 10.32 10.5334 10.5C10.7134 10.68 10.8034 10.9 10.8034 11.16C10.8034 11.42 10.7134 11.64 10.5334 11.82C10.3634 12 10.1534 12.09 9.90338 12.09ZM9.90338 5.67C9.64338 5.67 9.42338 5.58 9.24338 5.4C9.06338 5.22 8.97338 5 8.97338 4.74C8.97338 4.48 9.06338 4.26 9.24338 4.08C9.42338 3.9 9.64338 3.81 9.90338 3.81C10.1534 3.81 10.3634 3.9 10.5334 4.08C10.7134 4.26 10.8034 4.48 10.8034 4.74C10.8034 5 10.7134 5.22 10.5334 5.4C10.3634 5.58 10.1534 5.67 9.90338 5.67ZM11.8067 9.585V8.55L17.0717 1.26H18.7067V8.4H20.2067V9.585H18.7067V12H17.3567V9.585H11.8067ZM17.4167 2.685L13.3817 8.4H17.4167V2.685ZM20.9103 2.4V1.155H23.7303V12H22.3503V2.4H20.9103ZM29.189 7.86C29.189 7.02 29.359 6.285 29.699 5.655C30.039 5.015 30.504 4.52 31.094 4.17C31.694 3.82 32.359 3.645 33.089 3.645C33.809 3.645 34.434 3.8 34.964 4.11C35.494 4.42 35.889 4.81 36.149 5.28V3.78H37.529V12H36.149V10.47C35.879 10.95 35.474 11.35 34.934 11.67C34.404 11.98 33.784 12.135 33.074 12.135C32.344 12.135 31.684 11.955 31.094 11.595C30.504 11.235 30.039 10.73 29.699 10.08C29.359 9.43 29.189 8.69 29.189 7.86ZM36.149 7.875C36.149 7.255 36.024 6.715 35.774 6.255C35.524 5.795 35.184 5.445 34.754 5.205C34.334 4.955 33.869 4.83 33.359 4.83C32.849 4.83 32.384 4.95 31.964 5.19C31.544 5.43 31.209 5.78 30.959 6.24C30.709 6.7 30.584 7.24 30.584 7.86C30.584 8.49 30.709 9.04 30.959 9.51C31.209 9.97 31.544 10.325 31.964 10.575C32.384 10.815 32.849 10.935 33.359 10.935C33.869 10.935 34.334 10.815 34.754 10.575C35.184 10.325 35.524 9.97 35.774 9.51C36.024 9.04 36.149 8.495 36.149 7.875ZM49.4208 3.63C50.0608 3.63 50.6308 3.765 51.1308 4.035C51.6308 4.295 52.0258 4.69 52.3158 5.22C52.6058 5.75 52.7508 6.395 52.7508 7.155V12H51.4008V7.35C51.4008 6.53 51.1958 5.905 50.7858 5.475C50.3858 5.035 49.8408 4.815 49.1508 4.815C48.4408 4.815 47.8758 5.045 47.4558 5.505C47.0358 5.955 46.8258 6.61 46.8258 7.47V12H45.4758V7.35C45.4758 6.53 45.2708 5.905 44.8608 5.475C44.4608 5.035 43.9158 4.815 43.2258 4.815C42.5158 4.815 41.9508 5.045 41.5308 5.505C41.1108 5.955 40.9008 6.61 40.9008 7.47V12H39.5358V3.78H40.9008V4.965C41.1708 4.535 41.5308 4.205 41.9808 3.975C42.4408 3.745 42.9458 3.63 43.4958 3.63C44.1858 3.63 44.7958 3.785 45.3258 4.095C45.8558 4.405 46.2508 4.86 46.5108 5.46C46.7408 4.88 47.1208 4.43 47.6508 4.11C48.1808 3.79 48.7708 3.63 49.4208 3.63Z" fill="black"/>
</svg>
