<svg width="32" height="30" viewBox="0 0 32 30" fill="none" xmlns="http://www.w3.org/2000/svg">
<path d="M12.8334 0.75L9.66669 3.91667V7.08333H4.91668C3.09585 7.08333 1.94002 8.66667 1.75002 10.25L0.166684 26.0833C-0.0233159 27.6667 1.02168 29.25 3.33335 29.25H28.6667C30.9784 29.25 32.0234 27.6667 31.8334 26.0833L30.25 10.25C30.06 8.66667 28.7617 7.08333 27.0834 7.08333H22.3334V3.91667L19.1667 0.75H12.8334ZM12.8334 3.91667H19.1667V7.08333H12.8334V3.91667ZM14.4167 11.8333H17.5834V16.5833H22.3334V19.75H17.5834V24.5H14.4167V19.75H9.66669V16.5833H14.4167V11.8333Z" fill="#2F2E41"/>
</svg>
