<svg width="16" height="32" viewBox="0 0 16 32" fill="none" xmlns="http://www.w3.org/2000/svg">
<path d="M0.083252 0.166626V3.33329H1.66659V25.5C1.66659 27.1797 2.33384 28.7906 3.52158 29.9783C4.70931 31.166 6.32021 31.8333 7.99992 31.8333C9.67962 31.8333 11.2905 31.166 12.4783 29.9783C13.666 28.7906 14.3333 27.1797 14.3333 25.5V3.33329H15.9166V0.166626H0.083252ZM6.41658 22.3333C5.46659 22.3333 4.83325 21.7 4.83325 20.75C4.83325 19.8 5.46659 19.1666 6.41658 19.1666C7.36658 19.1666 7.99992 19.8 7.99992 20.75C7.99992 21.7 7.36658 22.3333 6.41658 22.3333ZM9.58325 16C8.63325 16 7.99992 15.3666 7.99992 14.4166C7.99992 13.4666 8.63325 12.8333 9.58325 12.8333C10.5333 12.8333 11.1666 13.4666 11.1666 14.4166C11.1666 15.3666 10.5333 16 9.58325 16ZM11.1666 8.08329H4.83325V3.33329H11.1666V8.08329Z" fill="#2F2E41"/>
</svg>
